<svg viewBox="0 -31 512.00059 512" xmlns="http://www.w3.org/2000/svg"><path d="m332.003906 75c0-8.289062-6.707031-15-15-15h-90c-8.292968 0-15 6.710938-15 15v60.003906c0 8.289063 6.707032 15 15 15h105s0-66.710937 0-75.003906zm0 0" fill="#fdbf00"/><path d="m452.007812 45v90.003906c0 8.398438-6.601562 15-15 15h-120.003906c-8.398437 0-15-6.601562-15-15v-90.003906c0-8.398438 6.601563-15 15-15h120.003906c8.398438 0 15 6.601562 15 15zm0 0" fill="#ffd400"/><path d="m452.007812 45v90.003906c0 8.398438-6.601562 15-15 15h-120.003906v-120.003906h120.003906c8.398438 0 15 6.601562 15 15zm0 0" fill="#fdbf00"/><path d="m152.003906 45c0-24.8125-20.1875-45-45.003906-45h-92c-8.289062 0-15 6.710938-15 15 0 8.292969 6.710938 15 15 15h92c8.277344 0 15 6.726562 15.089844 16.65625l8.148437 73.347656 14.734375 30 15.394532-30zm0 0" fill="#68544f"/><path d="m422.007812 375.007812c0 8.398438-6.601562 15-15 15h-240.003906c-24.902344 0-45.003906-20.101562-45.003906-45.003906 0-24.898437 20.101562-45 45.003906-45 8.398438 0 15 6.601563 15 15 0 8.402344-6.601562 15-15 15-8.402344 0-15 6.601563-15 15 0 8.402344 6.597656 15.003906 15 15.003906h240.003906c8.398438 0 15 6.597657 15 15zm0 0" fill="#68544f"/><path d="m422.007812 375.007812c0 8.398438-6.601562 15-15 15h-90.003906v-30h90.003906c8.398438 0 15 6.597657 15 15zm0 0" fill="#53433f"/><path d="m511.707031 137.402344-25.800781 155.101562c-3.597656 21.601563-22.199219 37.5-44.398438 37.5h-274.503906c-7.5 0-14.101562-5.699218-15-13.199218l-21.902344-196.800782h366.90625c4.5 0 8.699219 1.796875 11.398438 5.398438 3 3.300781 4.203125 7.800781 3.300781 12zm0 0" fill="#70da40"/><path d="m511.707031 137.402344-25.800781 155.101562c-3.597656 21.601563-22.199219 37.5-44.398438 37.5h-124.503906v-210h180.003906c4.5 0 8.699219 1.796875 11.398438 5.398438 3 3.300781 4.203125 7.800781 3.300781 12zm0 0" fill="#56c225"/><path d="m227.003906 270.003906c-8.292968 0-15-6.707031-15-15v-60c0-8.292968 6.707032-15 15-15 8.289063 0 15 6.707032 15 15v60c0 8.292969-6.710937 15-15 15zm0 0" fill="#ececf1"/><path d="m332.003906 195.003906v60c0 8.398438-6.597656 15-15 15-8.398437 0-15-6.601562-15-15v-60c0-8.402344 6.601563-15 15-15 8.402344 0 15 6.597656 15 15zm0 0" fill="#ececf1"/><path d="m407.007812 270.003906c-8.292968 0-15-6.707031-15-15v-60c0-8.292968 6.707032-15 15-15 8.289063 0 15 6.707032 15 15v60c0 8.292969-6.710937 15-15 15zm0 0" fill="#e2e2e7"/><path d="m332.003906 195.003906v60c0 8.398438-6.597656 15-15 15v-90c8.402344 0 15 6.597656 15 15zm0 0" fill="#e2e2e7"/><path d="m227.003906 360.007812c-24.902344 0-45 20.097657-45 45 0 24.898438 20.097656 45 45 45s45-20.101562 45-45c0-24.902343-20.097656-45-45-45zm0 0" fill="#68544f"/><path d="m227.003906 390.007812c-8.402344 0-15 6.597657-15 15 0 8.398438 6.597656 15 15 15s15-6.601562 15-15c0-8.402343-6.597656-15-15-15zm0 0" fill="#ececf1"/><path d="m407.007812 360.007812c-24.902343 0-45.003906 20.097657-45.003906 45 0 24.898438 20.101563 45 45.003906 45 24.898438 0 45-20.101562 45-45 0-24.902343-20.101562-45-45-45zm0 0" fill="#53433f"/><path d="m407.007812 390.007812c-8.402343 0-15 6.597657-15 15 0 8.398438 6.597657 15 15 15 8.398438 0 15-6.601562 15-15 0-8.402343-6.601562-15-15-15zm0 0" fill="#e2e2e7"/></svg>