<svg id="Layer_1" enable-background="new 0 0 512 512" height="512" viewBox="0 0 512 512" width="512" xmlns="http://www.w3.org/2000/svg"><path d="m325.022 422.374h-299.783c-2.276 0-4.121-1.845-4.121-4.121v-220.058h308.024v220.059c.001 2.275-1.844 4.12-4.12 4.12z" fill="#c7824c"/><path d="m298.237 198.195v220.059c0 2.276-1.845 4.121-4.121 4.121h30.905c2.276 0 4.121-1.845 4.121-4.121v-220.059z" fill="#b5723c"/><path d="m346.141 212.217h-342.02c-2.276 0-4.121-1.845-4.121-4.121v-66.962c0-2.276 1.845-4.121 4.121-4.121h342.02c2.276 0 4.121 1.845 4.121 4.121v66.962c0 2.276-1.845 4.121-4.121 4.121z" fill="#d18c55"/><path d="m346.141 137.014h-30.905c2.276 0 4.121 1.845 4.121 4.121v66.962c0 2.276-1.845 4.121-4.121 4.121h30.905c2.276 0 4.121-1.845 4.121-4.121v-66.962c0-2.276-1.845-4.121-4.121-4.121z" fill="#c7824c"/><path d="m154.57 381.665h-92.716c-2.276 0-4.121-1.845-4.121-4.121v-26.785c0-2.276 1.845-4.121 4.121-4.121h92.716c2.276 0 4.121 1.845 4.121 4.121v26.785c0 2.276-1.845 4.121-4.121 4.121z" fill="#ffd740"/><path d="m508 512h-111.767c-2.209 0-4-1.791-4-4v-107.38c0-2.209 1.791-4 4-4h111.767c2.209 0 4 1.791 4 4v107.38c0 2.209-1.791 4-4 4z" fill="#e7387f"/><path d="m481.095 396.62v115.38h26.905c2.209 0 4-1.791 4-4v-107.38c0-2.209-1.791-4-4-4z" fill="#c40955"/><path d="m229.155 365.419c0 11.407 9.247 20.655 20.655 20.655h48.883c6.628 0 12.001 5.373 12.001 12.001 0 6.628-5.373 12.001-12.001 12.001h-152.221c-17.586 0-31.843 14.257-31.843 31.843 0 5.228 4.238 9.466 9.466 9.466h111.987c17.193 0 34.337 1.818 51.147 5.425l105.004 22.528v-83.579c0-28.163-22.831-50.994-50.994-50.994h-91.429c-11.407 0-20.655 9.247-20.655 20.654z" fill="#e8916f"/><path d="m232.38 212.217h-117.44v-23.232c0-7.652 6.203-13.854 13.854-13.854h89.732c7.652 0 13.855 6.203 13.855 13.854v23.232z" fill="#704537"/><circle cx="397.65" cy="114.35" fill="#bdf9ff" r="114.35"/><path d="m397.65 0c-5.241 0-10.398.36-15.453 1.043 55.844 7.545 98.897 55.395 98.897 113.307s-43.053 105.762-98.897 113.307c5.054.683 10.211 1.043 15.453 1.043 63.154 0 114.35-51.196 114.35-114.35s-51.196-114.35-114.35-114.35z" fill="#8cf2ff"/><path d="m471.458 75.286c-5.691-6.361-15.46-6.903-21.82-1.212l-69.682 64.931-29.44-24.714c-6.836-5.113-16.519-3.715-21.63 3.119-5.112 6.834-3.715 16.518 3.119 21.63l39.57 32.292c5.851 4.377 14.039 4.082 19.559-.858l79.111-73.367c6.36-5.692 6.903-15.461 1.213-21.821z" fill="#f76c57"/></svg>