<svg version="1.0" xmlns="http://www.w3.org/2000/svg"
 width="600" height="600" viewBox="0 0 300.000000 300.000000"
 preserveAspectRatio="xMidYMid meet">

<g transform="translate(0.000000,300.000000) scale(0.100000,-0.100000)"
fill="green" stroke="none">

<path d="M1408 2430 c-168 -29 -318 -121 -414 -255 -147 -207 -161 -469 -38
-690 39 -68 151 -183 219 -224 128 -77 247 -21 262 123 7 70 0 98 -39 141 -62
71 -142 92 -190 48 -19 -17 -25 -53 -8 -53 6 0 10 -4 10 -10 0 -5 -11 -10 -25
-10 -33 0 -32 -11 5 -38 35 -26 38 -45 10 -65 -11 -8 -17 -17 -13 -20 3 -4 -1
-7 -11 -7 -9 0 -15 4 -12 9 3 5 -4 11 -15 14 -29 8 -15 25 16 19 34 -6 34 24
0 40 -31 14 -33 47 -5 71 11 9 20 23 20 31 0 27 59 66 100 66 45 0 106 -23
139 -53 l24 -22 -6 80 c-3 45 -15 108 -29 145 -23 64 -23 65 -63 68 -23 2 -52
-1 -65 -7 -21 -8 -16 -10 33 -10 61 -1 70 -10 35 -35 -28 -20 -67 -20 -93 -2
-11 7 -33 17 -49 23 l-30 9 56 32 c63 36 92 40 122 15 20 -18 20 -18 3 10 -10
15 -13 27 -8 27 27 0 108 -135 131 -220 l13 -45 13 35 c17 46 17 55 0 41 -10
-9 -15 -8 -19 4 -4 8 -3 14 1 14 21 -3 24 3 7 15 -16 12 -17 16 -6 30 7 9 18
13 23 10 6 -4 5 -10 -3 -14 -10 -7 -10 -11 0 -24 11 -14 17 -9 39 36 26 53 93
128 114 128 6 0 3 -10 -8 -22 -50 -57 -78 -133 -88 -245 l-6 -62 43 19 c23 10
60 22 82 26 75 13 92 28 100 84 4 28 5 53 2 56 -2 3 -8 -15 -11 -40 -9 -56
-22 -67 -37 -29 -15 41 -3 106 26 133 25 23 25 23 39 4 24 -32 28 -91 9 -127
-9 -17 -17 -39 -17 -47 -1 -8 -18 -24 -39 -36 -38 -21 -38 -22 -14 -28 14 -3
39 -20 56 -37 17 -17 37 -29 43 -27 8 3 4 11 -10 23 -30 26 -28 36 7 29 42 -9
50 21 11 41 -48 25 -53 45 -19 83 16 18 29 26 29 18 0 -7 10 -16 22 -19 28 -8
16 -21 -19 -22 -37 0 -37 -17 0 -40 38 -24 46 -57 19 -77 -25 -18 -36 -49 -20
-60 7 -4 25 -8 40 -8 15 0 46 -7 68 -16 38 -15 39 -17 25 -38 -37 -52 -130
-135 -180 -159 -74 -37 -125 -36 -164 3 -32 32 -45 77 -39 126 4 26 5 27 13 9
14 -33 56 -66 79 -63 12 2 27 16 36 36 9 18 25 35 39 39 l24 6 -29 16 c-29 15
-29 16 -5 19 13 2 26 0 30 -6 4 -5 18 -4 36 4 17 7 24 13 18 14 -7 0 -13 7
-13 16 0 12 -5 14 -17 8 -47 -20 -89 -16 -121 11 -36 30 -42 49 -12 41 53 -15
61 -14 25 3 -40 18 -40 18 -87 -5 -26 -13 -50 -29 -54 -35 -10 -16 -6 -113 7
-176 12 -61 54 -105 119 -124 51 -15 106 4 191 68 101 76 174 179 221 313 28
80 35 244 14 335 -43 180 -172 343 -336 424 -123 60 -257 82 -382 61z m222
-39 c0 -15 -28 -33 -40 -26 -8 5 -8 11 1 21 13 15 39 19 39 5z m-220 -30 c0
-26 -27 -48 -42 -33 -9 9 -7 17 7 32 23 25 35 26 35 1z m158 1 c2 -7 -5 -12
-15 -12 -17 -1 -17 -1 0 -11 21 -12 22 -26 3 -44 -12 -12 -16 -12 -26 0 -10
12 -9 15 5 15 17 0 17 1 0 20 -15 16 -16 22 -5 35 14 17 31 16 38 -3z m109
-29 c-4 -19 -1 -22 14 -18 14 5 17 2 13 -9 -3 -9 -15 -16 -25 -16 -19 0 -23 9
-20 42 2 12 -3 16 -13 12 -12 -4 -15 -2 -10 9 3 9 13 13 26 9 15 -3 19 -11 15
-29z m-187 12 c0 -18 -20 -20 -21 -2 -1 6 -4 1 -8 -13 -8 -30 -51 -42 -51 -14
0 13 3 14 15 4 13 -11 15 -8 15 14 0 21 5 26 25 26 16 0 25 -6 25 -15z m-169
-5 c22 -12 26 -50 5 -50 -8 0 -22 7 -30 16 -18 18 -21 44 -5 44 6 0 19 -5 30
-10z m309 -49 c0 -21 -11 -36 -32 -44 -27 -10 -35 36 -13 70 17 25 18 26 31 8
8 -10 14 -26 14 -34z m-427 5 c-10 -14 -25 -26 -33 -26 -9 0 -21 -5 -28 -12
-6 -6 -19 -13 -28 -14 -9 -1 -13 0 -10 4 16 15 111 80 114 77 2 -2 -4 -15 -15
-29z m317 -17 c0 -12 -7 -19 -20 -19 -20 0 -25 15 -14 44 8 21 34 2 34 -25z
m290 24 c0 -12 -33 -43 -47 -43 -16 0 -17 22 -1 38 13 13 48 17 48 5z m-542
-52 c2 -13 -2 -21 -10 -21 -21 0 -38 21 -38 48 0 23 1 24 23 10 12 -9 23 -25
25 -37z m128 34 c10 -8 26 -15 33 -15 8 0 32 -12 52 -26 45 -31 63 -73 48
-111 l-10 -26 -33 49 c-52 77 -73 86 -26 11 24 -37 40 -70 37 -73 -3 -3 -22
-1 -41 6 -47 15 -76 57 -76 108 0 23 -4 52 -10 66 -11 29 -3 33 26 11z m317
-47 c-5 -60 -28 -99 -66 -112 -41 -15 -43 -1 -9 54 18 28 27 48 21 44 -6 -3
-24 -27 -40 -52 -28 -44 -29 -44 -37 -21 -16 42 4 75 66 107 31 16 60 30 63
31 3 0 4 -23 2 -51z m-354 -40 c1 -32 -26 -51 -52 -37 -25 14 -21 39 10 71 25
26 28 27 35 11 3 -10 7 -30 7 -45z m471 37 c0 -24 -31 -51 -44 -38 -12 12 -6
36 12 49 25 19 32 17 32 -11z m-644 -21 c7 -27 -7 -50 -25 -40 -6 4 -11 20
-11 37 0 37 27 40 36 3z m715 0 c18 -19 24 -37 24 -70 0 -37 3 -43 18 -38 11
3 17 0 17 -10 0 -10 -6 -13 -16 -9 -14 5 -15 3 -5 -15 9 -18 8 -23 -8 -32 -26
-13 -31 -13 -31 5 0 9 6 12 17 8 13 -5 15 -2 10 11 -4 10 -7 22 -7 27 0 6 -4
8 -9 4 -6 -3 -12 12 -14 32 -4 38 -4 38 -5 -6 l-2 -44 -26 24 c-20 18 -24 30
-20 51 3 16 9 42 12 58 8 37 14 37 45 4z m-647 -26 c-5 -17 -3 -20 11 -15 11
5 15 3 13 -5 -3 -7 -13 -13 -24 -13 -14 0 -19 6 -17 27 1 20 -2 25 -13 21 -10
-4 -12 0 -8 11 10 26 47 1 38 -26z m-161 11 c35 -18 58 -47 68 -85 18 -64 -14
-65 -47 -1 -9 16 -18 26 -21 23 -3 -3 6 -24 21 -46 26 -40 22 -49 -16 -29 -41
22 -68 149 -31 149 3 0 14 -5 26 -11z m685 -50 c-4 -28 -31 -32 -36 -6 -5 23
18 51 30 39 6 -6 8 -20 6 -33z m-535 -13 c7 -18 -18 -40 -37 -33 -8 3 -20 15
-26 26 -10 19 -8 21 24 21 20 0 36 -6 39 -14z m127 -5 c0 -23 -28 -54 -41 -46
-24 15 -1 54 39 64 1 1 2 -8 2 -18z m650 -21 c4 -30 0 -40 -20 -40 -14 0 -20
7 -20 23 0 43 35 57 40 17z m-980 6 c0 -8 5 -16 12 -18 13 -5 2 -28 -13 -28
-6 0 -8 4 -4 9 3 5 1 12 -5 16 -13 8 -13 35 0 35 6 0 10 -6 10 -14z m260 -7
c0 -6 -6 -17 -14 -25 -19 -18 -32 0 -14 20 15 18 28 20 28 5z m446 -6 c20 -27
17 -33 -16 -26 -38 7 -42 -19 -5 -43 40 -26 42 -52 5 -85 -35 -32 -40 -34 -40
-18 0 7 -8 18 -17 25 -22 16 -11 29 14 16 42 -22 60 17 19 43 -13 9 -27 23
-30 31 -8 20 11 54 29 54 8 0 15 5 15 10 0 15 11 12 26 -7z m-160 -9 c-3 -9
-6 -18 -6 -20 0 -2 -7 -4 -15 -4 -18 0 -19 12 -3 28 17 17 31 15 24 -4z m269
-14 c18 -35 19 -79 1 -102 -21 -29 -29 -21 -23 25 5 42 5 42 -5 7 -5 -19 -12
-42 -15 -50 -9 -29 -35 40 -29 74 5 28 38 76 51 76 3 0 11 -13 20 -30z m-447
-4 c3 -13 -1 -17 -14 -14 -11 2 -20 11 -22 22 -3 13 1 17 14 14 11 -2 20 -11
22 -22z m38 -11 c-24 -18 -20 -25 18 -25 38 0 53 -22 39 -57 -6 -15 -13 -18
-33 -12 l-25 7 23 7 c35 11 27 35 -12 35 -36 0 -45 11 -38 46 3 16 9 20 24 16
19 -5 19 -6 4 -17z m92 5 c9 -15 10 -26 3 -38 -6 -9 -11 -14 -11 -9 0 16 -4
23 -18 33 -8 6 -12 16 -8 22 10 17 19 15 34 -8z m106 -4 c7 -26 -11 -46 -40
-46 -28 0 -30 -8 -8 -25 15 -11 15 -12 -4 -17 -16 -4 -22 0 -27 19 -8 33 1 43
36 43 31 0 40 17 14 26 -22 9 -19 23 4 21 11 -1 22 -10 25 -21z m-380 -2 c20
-8 21 -24 1 -24 -8 0 -15 -7 -15 -15 0 -8 9 -15 19 -15 31 0 53 -28 41 -51
-11 -20 -6 -39 10 -39 5 0 7 7 4 14 -5 14 24 76 36 76 10 0 26 -54 22 -73 -2
-10 -15 -22 -29 -28 -19 -7 -31 -5 -54 12 l-29 20 0 -25 c0 -21 -5 -26 -25
-26 -23 0 -24 2 -15 20 6 11 16 20 22 20 6 0 8 3 5 7 -4 3 3 11 14 17 30 15
29 30 -1 34 -36 5 -50 27 -36 57 6 14 12 25 13 25 1 0 8 -3 17 -6z m-71 -62
c9 -8 17 -29 17 -46 l0 -30 -35 34 c-41 40 -48 29 -8 -12 l27 -28 -27 0 c-29
0 -53 28 -61 70 -2 14 -7 33 -11 42 -6 16 -4 16 37 1 23 -9 51 -23 61 -31z
m870 26 c57 -29 -35 -90 -107 -70 -46 12 -41 27 11 40 l48 11 -49 -6 c-46 -4
-49 -4 -36 12 28 33 83 39 133 13z m-1063 -6 c20 -16 21 -19 6 -31 -19 -16
-41 -3 -49 29 -6 25 13 26 43 2z m50 7 c0 -5 4 -8 9 -4 5 3 12 1 15 -4 11 -17
-17 -24 -29 -8 -7 9 -15 14 -18 10 -4 -3 -7 -1 -7 5 0 7 7 12 15 12 8 0 15 -5
15 -11z m356 -16 c-3 -8 -1 -11 4 -8 6 3 10 -1 10 -9 0 -10 -6 -13 -15 -10 -8
4 -15 10 -15 14 0 5 -3 16 -6 24 -5 12 -2 15 10 10 10 -4 15 -13 12 -21z m135
-182 c-22 -31 -61 -48 -61 -26 0 7 7 32 15 55 8 24 14 45 12 47 -4 3 -29 -53
-41 -91 -11 -31 -31 -2 -31 44 0 32 6 44 29 62 16 13 41 33 55 45 l26 21 8
-64 c7 -56 6 -68 -12 -93z m-451 132 l25 -18 -40 -6 -40 -6 38 -2 c43 -1 48
-13 12 -29 -41 -19 -81 -14 -112 13 -27 24 -28 25 -8 38 49 30 92 33 125 10z
m568 -33 c-4 -21 -34 -24 -42 -5 -3 9 -1 26 5 38 11 20 12 20 26 1 7 -10 12
-25 11 -34z m-233 20 c3 -5 -2 -10 -11 -10 -16 0 -16 -1 1 -20 14 -16 15 -22
5 -35 -7 -8 -17 -12 -22 -9 -6 4 -5 10 3 14 10 7 10 12 1 23 -7 8 -10 22 -6
31 7 18 20 21 29 6z m423 -28 c2 -8 -2 -10 -13 -6 -13 5 -15 2 -10 -18 5 -20
2 -26 -14 -31 -12 -3 -22 1 -25 10 -5 11 -2 13 10 9 13 -5 15 -2 10 18 -8 32
31 49 42 18z m151 9 c33 -21 -47 -86 -94 -77 -11 3 -23 5 -27 5 -18 2 -7 51
14 65 24 17 85 21 107 7z m51 -66 c-14 -17 -40 -9 -40 13 0 8 8 24 17 34 17
19 18 19 26 -7 6 -17 5 -30 -3 -40z m-280 16 c0 -16 -71 -52 -89 -46 -29 9
-26 21 7 34 25 10 25 10 -8 5 -34 -6 -35 -6 -17 13 9 11 14 22 11 26 -3 3 17
-1 45 -10 28 -9 51 -19 51 -22z m-784 -3 c3 -5 0 -23 -6 -39 -16 -38 -1 -59
24 -33 9 9 20 14 23 10 4 -3 2 -11 -4 -17 -6 -6 -9 -18 -6 -25 6 -17 4 -17
-35 -3 -38 13 -46 32 -27 69 18 35 3 50 -26 24 -20 -18 -23 -13 -13 23 5 19 9
20 35 11 16 -5 32 -14 35 -20z m189 12 c-3 -5 3 -10 14 -10 22 0 28 -14 11
-25 -5 -3 -10 -1 -10 4 0 6 -7 11 -15 11 -8 0 -15 7 -15 15 0 8 5 15 11 15 5
0 7 -4 4 -10z m-21 -27 c4 -4 -10 -16 -31 -26 -21 -9 -30 -15 -20 -12 63 18
66 18 60 -4 -8 -31 -36 -42 -93 -39 l-49 3 35 43 c26 31 43 42 63 42 15 0 31
-3 35 -7z m861 -24 c3 -4 18 -4 34 1 24 7 30 5 34 -11 3 -10 1 -22 -4 -25 -5
-3 -9 0 -9 5 0 6 -6 11 -14 11 -9 0 -13 -12 -12 -37 1 -34 -2 -38 -25 -41 -20
-2 -28 2 -32 17 -5 22 7 29 18 11 13 -21 27 -9 20 17 -7 31 -22 44 -40 37 -7
-3 -15 1 -18 9 -4 10 2 15 19 15 13 0 27 -4 29 -9z m-112 -25 c-3 -9 -13 -14
-24 -11 -12 3 -16 0 -12 -9 3 -10 0 -12 -10 -8 -19 7 -12 31 11 37 33 9 41 7
35 -9z m57 -28 c0 -41 -23 -65 -45 -46 -20 17 -19 30 7 57 29 31 38 29 38 -11z
m-267 -40 c-18 -53 -43 -79 -74 -74 -22 3 -22 3 6 36 15 18 25 35 22 38 -2 3
-16 -9 -31 -26 -22 -26 -26 -28 -26 -12 0 29 37 71 73 80 18 5 35 8 38 6 4 -2
0 -24 -8 -48z m-728 -6 c0 -16 -48 -44 -53 -30 -2 5 2 18 8 30 12 23 45 23 45
0z m188 -5 c-3 -8 -1 -15 5 -15 5 0 12 7 16 15 7 20 40 19 56 -1 11 -12 10
-18 -3 -32 -16 -15 -17 -15 -17 6 0 26 -7 28 -32 5 -17 -15 -19 -15 -37 1 -16
14 -17 21 -8 31 15 16 28 9 20 -10z m201 10 c36 -15 58 -41 71 -84 7 -23 4
-22 -36 12 -60 52 -71 46 -12 -8 46 -42 47 -44 22 -45 -40 0 -82 18 -102 46
-21 28 -38 80 -29 88 10 11 49 6 86 -9z m753 -12 c3 -8 -6 -11 -23 -10 -15 1
-29 8 -31 14 -3 8 6 11 23 10 15 -1 29 -8 31 -14z m-1047 -10 c0 -4 -17 -25
-37 -47 l-38 -39 48 37 47 38 0 -34 c0 -43 -23 -65 -91 -88 l-51 -17 7 21 c6
20 11 47 14 74 2 23 49 62 76 62 14 0 25 -3 25 -7z m965 -1 c6 -4 27 -28 47
-53 l37 -46 -55 -6 c-65 -7 -97 5 -113 40 -16 35 -8 39 41 20 23 -9 43 -15 46
-12 4 4 -64 35 -79 35 -14 0 -11 18 4 23 19 8 61 8 72 -1z m-885 -29 c0 -3 -7
-14 -16 -24 -15 -16 -13 -17 23 -12 27 4 43 1 51 -10 18 -21 4 -47 -25 -47
-22 0 -24 -2 -13 -16 11 -12 10 -18 -3 -32 -16 -15 -17 -15 -17 6 0 25 -15 30
-24 7 -7 -19 -33 -19 -51 -1 -12 12 -12 16 0 26 12 10 15 9 15 -4 0 -20 19
-21 26 -1 4 8 12 15 20 15 10 0 8 6 -6 20 -23 23 -26 50 -8 68 13 13 28 16 28
5z m117 -32 c-3 -15 -1 -18 12 -14 13 5 14 3 4 -7 -11 -12 -16 -10 -32 7 -21
22 -18 33 7 33 9 0 13 -7 9 -19z m727 -70 c15 -17 40 -91 30 -91 -10 0 -61 26
-76 38 -17 15 -25 52 -11 52 3 0 16 -8 27 -17 21 -18 21 -18 4 3 -10 11 -18
24 -18 27 0 14 28 6 44 -12z m-674 -21 c-13 -8 -12 -10 3 -10 21 0 22 -13 2
-30 -11 -9 -27 -10 -57 -4 l-43 9 25 23 c14 13 36 22 54 22 24 0 27 -3 16 -10z
m-265 -20 c3 -5 -1 -22 -9 -38 -14 -27 -14 -31 3 -46 10 -9 35 -16 55 -16 35
0 38 -2 32 -24 -3 -14 -3 -32 0 -41 8 -20 48 -37 69 -29 19 8 58 71 51 83 -4
5 -2 12 3 16 6 3 1 15 -10 26 -11 11 -18 23 -15 26 9 9 45 -37 68 -85 24 -49
47 -65 83 -56 24 6 26 5 19 -22 -9 -37 -21 -52 -55 -70 -41 -21 -83 -17 -142
12 -91 47 -239 218 -223 260 6 16 61 19 71 4z m324 -50 c1 43 1 44 17 22 19
-28 11 -91 -16 -124 l-18 -22 -21 34 c-25 42 -26 71 -4 113 l17 32 12 -50 12
-50 1 45z m261 40 c-13 -8 -12 -11 5 -24 15 -11 18 -19 10 -31 -11 -19 -28
-22 -33 -6 -2 6 4 11 13 11 14 0 13 3 -5 18 -25 20 -20 42 8 42 15 0 15 -2 2
-10z m-516 -19 c11 -16 -6 -41 -31 -47 -33 -9 -39 1 -19 31 17 25 40 33 50 16z
m581 -25 c24 10 37 -31 25 -77 -13 -47 -27 -47 -53 2 -16 29 -17 39 -7 64 7
17 14 25 17 18 2 -7 10 -10 18 -7z"/>

<path d="M1380 1233 c-48 -18 -66 -75 -34 -107 22 -23 76 -20 115 7 l34 23 30
-22 c62 -46 142 -29 160 33 4 17 -1 30 -19 48 -32 32 -63 32 -110 0 l-37 -25
-37 25 c-35 24 -69 30 -102 18z m68 -40 l35 -26 -23 -19 c-40 -33 -110 -13
-110 32 0 45 48 52 98 13z m190 11 c28 -19 29 -60 2 -74 -20 -11 -50 0 -92 33
-24 19 -23 24 10 41 35 20 52 20 80 0z"/>
<path d="M235 845 l0 -125 78 0 c42 0 77 4 77 9 0 5 3 18 7 28 6 17 6 17 -14
1 -12 -11 -36 -18 -60 -18 l-41 0 -4 64 c-2 35 -2 82 0 105 l4 41 45 0 c31 0
50 -6 60 -17 14 -17 14 -17 9 0 -3 10 -6 23 -6 28 0 5 -35 9 -77 9 l-78 0 0
-125z"/>
<path d="M1205 960 c-8 -14 3 -30 21 -30 8 0 14 9 14 20 0 21 -24 28 -35 10z"/>
<path d="M1480 962 c-12 -2 -15 -24 -15 -122 0 -113 1 -120 20 -120 19 0 20 6
17 87 -4 149 -6 159 -22 155z"/>
<path d="M1645 845 c0 -125 0 -125 24 -125 22 0 23 3 19 50 l-5 50 54 0 55 0
-4 -50 c-3 -45 -1 -50 17 -50 19 0 20 7 20 125 0 118 -1 125 -20 125 -18 0
-20 -6 -17 -65 l4 -65 -55 0 -55 0 6 65 c5 63 4 65 -19 65 l-24 0 0 -125z"/>
<path d="M1100 910 c-14 -11 -19 -20 -12 -20 8 0 12 -22 12 -74 0 -85 13 -106
52 -85 20 11 20 14 6 17 -15 3 -18 15 -18 74 0 58 3 69 15 65 8 -4 17 -2 20 3
4 6 -3 10 -14 10 -12 0 -21 7 -21 15 0 20 -10 19 -40 -5z"/>
<path d="M2695 908 c-21 -12 -25 -18 -12 -18 15 0 17 -11 17 -80 0 -64 3 -82
16 -87 8 -3 23 2 32 11 15 15 15 16 -1 16 -14 0 -17 11 -17 71 0 66 1 70 20
64 11 -4 20 -2 20 4 0 6 -9 11 -19 11 -11 0 -21 6 -23 13 -2 11 -10 10 -33 -5z"/>
<path d="M460 903 c-19 -7 -40 -33 -40 -50 0 -7 23 -27 50 -44 28 -17 50 -34
50 -39 0 -18 -31 -32 -57 -25 -36 9 -37 8 -41 -3 -4 -14 50 -24 82 -16 31 7
50 37 41 65 -4 10 -24 28 -45 39 -45 23 -56 38 -41 53 8 8 19 8 40 0 24 -9 31
-8 35 3 3 8 0 14 -7 14 -7 0 -21 2 -32 5 -11 2 -27 1 -35 -2z"/>
<path d="M600 897 c-44 -22 -38 -52 19 -88 28 -17 51 -34 51 -39 0 -18 -31
-32 -57 -25 -36 9 -37 8 -41 -3 -5 -17 57 -25 88 -12 53 22 45 64 -21 105 -21
14 -39 30 -39 35 0 18 32 24 53 11 16 -10 21 -10 28 1 6 9 2 15 -14 20 -33 9
-40 9 -67 -5z"/>
<path d="M774 900 c-80 -32 -65 -159 19 -175 36 -7 91 10 82 25 -4 6 -15 5
-30 -2 -25 -11 -75 -4 -75 11 0 5 14 11 32 15 45 9 68 33 68 72 0 51 -44 75
-96 54z m73 -26 c9 -24 -13 -61 -48 -79 -26 -14 -33 -14 -40 -4 -10 17 -1 59
19 82 19 21 61 22 69 1z"/>
<path d="M959 888 c-17 -18 -21 -19 -16 -5 5 12 1 17 -13 17 -17 0 -19 -9 -22
-90 -3 -88 -2 -90 20 -90 21 0 22 4 22 66 0 74 12 104 41 104 28 0 42 -44 35
-112 -5 -55 -5 -58 17 -58 21 0 22 2 17 81 -4 65 -9 83 -24 95 -28 20 -52 17
-77 -8z"/>
<path d="M1308 899 c-10 -5 -18 -17 -18 -24 0 -20 6 -19 30 5 24 24 43 25 60
5 10 -12 7 -18 -20 -32 -62 -35 -80 -53 -80 -84 0 -42 40 -60 81 -37 24 14 29
15 29 3 0 -8 8 -15 18 -15 15 0 17 9 14 62 -4 89 -8 103 -37 116 -31 14 -54
15 -77 1z m66 -146 c-22 -16 -50 -17 -59 -2 -13 20 6 60 38 79 l32 20 3 -42
c3 -31 -1 -46 -14 -55z"/>
<path d="M1893 900 c-15 -6 -21 -15 -17 -25 6 -14 10 -13 29 5 16 15 30 20 44
15 35 -11 24 -33 -29 -60 -61 -31 -76 -68 -40 -97 25 -21 43 -22 71 -8 13 7
19 7 19 0 0 -5 10 -10 23 -10 21 0 22 3 19 75 -3 66 -6 77 -29 95 -27 21 -54
24 -90 10z m77 -96 c-5 -49 -25 -72 -54 -61 -28 11 -19 53 17 81 17 14 34 26
37 26 3 0 3 -21 0 -46z"/>
<path d="M2303 861 c-6 -25 -17 -59 -23 -76 l-12 -30 -26 73 c-20 54 -31 72
-45 72 -11 0 -17 -5 -14 -12 3 -7 17 -48 32 -90 20 -60 31 -78 45 -78 15 0 25
17 44 78 13 42 27 84 31 93 3 10 1 16 -8 16 -7 0 -18 -20 -24 -46z"/>
<path d="M2400 897 c-75 -38 -59 -157 23 -172 37 -7 91 10 82 25 -4 7 -12 7
-25 0 -27 -14 -56 -12 -70 5 -10 13 -9 15 12 15 41 0 78 36 78 75 0 54 -47 79
-100 52z m75 -18 c13 -20 -6 -60 -38 -79 -17 -11 -35 -20 -39 -20 -14 0 -8 65
8 88 16 23 58 30 69 11z"/>
<path d="M2570 903 c-19 -7 -40 -33 -40 -50 0 -7 23 -27 50 -44 28 -17 50 -34
50 -39 0 -18 -31 -32 -57 -25 -36 9 -37 8 -41 -3 -4 -14 50 -24 82 -16 31 7
50 37 41 65 -4 10 -24 28 -45 39 -45 23 -56 38 -41 53 8 8 19 8 40 0 24 -9 31
-8 35 3 3 8 0 14 -7 14 -7 0 -21 2 -32 5 -11 2 -27 1 -35 -2z"/>
<path d="M1205 810 c0 -83 1 -90 20 -90 19 0 20 7 20 90 0 83 -1 90 -20 90
-19 0 -20 -7 -20 -90z"/>
<path d="M2060 894 c-12 -4 -15 -22 -15 -89 0 -78 2 -85 20 -85 18 0 20 7 20
64 0 71 17 105 42 84 11 -9 16 -9 23 2 20 32 -21 41 -53 13 -19 -17 -20 -17
-14 0 6 17 4 18 -23 11z"/>
<path d="M322 870 c-49 -11 -51 -20 -4 -20 31 0 42 4 42 15 0 8 -1 15 -2 14
-2 -1 -18 -5 -36 -9z"/>


</g>
</svg>
