<svg clip-rule="evenodd" fill-rule="evenodd" height="512" image-rendering="optimizeQuality" shape-rendering="geometricPrecision" text-rendering="geometricPrecision" viewBox="0 0 1707 1707" width="512" xmlns="http://www.w3.org/2000/svg"><g id="Layer_x0020_1"><g id="_479408440"><path d="m1151 879h268l-64-167h-93-111z" fill="#9ff"/><path d="m1681 1303h-100c-14 0-25-12-25-26 0-13 0-122 0-162 0-14 11-26 25-26h52c9 0 18 5 22 13l48 81c2 4 4 8 4 13v81c0 14-12 26-26 26z" fill="#ffa721"/><path d="m1581 1345c-152 0-304 0-456 0-14 0-26-12-26-26v-414-219c0-14 12-26 26-26h248c10 0 20 7 24 17l81 212 121 107c5 5 8 12 8 19v304c0 14-11 26-26 26zm-430-466h268l-64-167h-204z" fill="#ff3131"/><path d="m1125 1345c-915 0-991 0-1037 0-48 0-88-40-88-89v-719c0-49 40-89 88-89h1037 141c65 0 119 52 121 118 1 1 1 2 1 4 0 14-12 26-26 26h-211v723c0 14-12 26-26 26z" fill="#7dd63e"/><path d="m1287 1041h-67c-18 0-32-14-32-31v-23c0-17 14-31 32-31h67c18 0 32 14 32 31v23c0 17-14 31-32 31z" fill="#333"/><g><path d="m1307 1524c-103 0-187-84-187-187 0-104 84-188 187-188 104 0 188 84 188 188 0 103-84 187-188 187z" fill="#333"/><path d="m1307 1422c-47 0-85-38-85-85s38-86 85-86 86 39 86 86-39 85-86 85z" fill="#fff"/></g><g><path d="m407 1524c-103 0-187-84-187-187 0-104 84-188 187-188 104 0 188 84 188 188 0 103-84 187-188 187z" fill="#333"/><path d="m407 1422c-47 0-85-38-85-85s38-86 85-86 86 39 86 86-39 85-86 85z" fill="#fff"/></g><path d="m1603 1524h-1491c-14 0-26-12-26-26s12-26 26-26h1491c14 0 26 12 26 26s-12 26-26 26z" fill="#1a1a1a"/></g><path d="m575 643c-8 0-16-4-21-10-8-12-20-27-31-42-56-72-124-161-124-232 0-97 79-176 176-176 98 0 177 79 177 176 0 71-69 160-124 232-12 15-23 30-32 42-4 6-12 10-21 10zm0-215c-43 0-79-36-79-80s36-79 79-79c44 0 80 35 80 79s-36 80-80 80z" fill="#ff3131"/><path d="m770 1128h-389c-15 0-26-11-26-26v-331c0-14 11-26 26-26h389c15 0 26 12 26 26v332c0 14-11 25-26 25z" fill="#ffa721"/><path d="m507 951c-4 0-8-1-12-3-9-4-14-13-14-22v-155c0-14 12-26 26-26h137c14 0 26 12 26 26v155c0 9-5 18-14 22-8 5-19 4-27-1l-54-37-53 37c-5 3-10 4-15 4z" fill="#ff3131"/><path d="m798 797h-445c-15 0-26-12-26-26v-81c0-14 11-26 26-26h445c14 0 26 12 26 26v81c0 14-12 26-26 26z" fill="#ff700d"/></g></svg>