<svg id="Capa_1" enable-background="new 0 0 512 512" height="512" viewBox="0 0 512 512" width="512" xmlns="http://www.w3.org/2000/svg"><g><path d="m416 48v16l-15 20-17-20v-16c0-8.83-7.17-16-16-16s-16 7.17-16 16v16l-16 20-16-20v-16c0-26.47 21.53-48 48-48s48 21.53 48 48z" fill="#c8fa64"/><path d="m192 48v16l-17 20-15-20v-16c0-8.83-7.17-16-16-16s-16 7.17-16 16v16l-14 20-18-20v-16c0-26.47 21.53-48 48-48s48 21.53 48 48z" fill="#c8fa64"/><path d="m448 64v96l-64 22-64-22-64 22-64-22-64 22-64-22v-96h32l18 20 14-20h256l17 20 15-20z" fill="#4de600"/><path d="m448 160v352h-384v-352l64 22 64-22 64 22 64-22 64 22z" fill="#c8fa64"/><path d="m160 256v192h192v-192zm78.625 144-46.625-46.625 22.625-22.625 24 24 57.6-57.6 22.625 22.625z" fill="#4de600"/><g fill="#0c0"><path d="m160 96v32h-16c-26.47 0-48-21.53-48-48v-16h32v16c0 8.83 7.17 16 16 16z"/><path d="m416 64v16c0 26.47-21.53 48-48 48h-16v-32h16c8.83 0 16-7.17 16-16v-16z"/><path d="m320 160-64 32-64-32z"/><path d="m448 160-64 32-64-32z"/><path d="m192 160-64 32-64-32z"/></g></g></svg>